<svg width="0" height="0" class="hidden">
  <symbol xmlns="http://www.w3.org/2000/svg" viewBox="0 0 19.174 15.573" id="twitter">
    <path id="twitter" d="M17.2,51.963c.012.17.012.341.012.511A11.1,11.1,0,0,1,6.034,63.655,11.105,11.105,0,0,1,0,61.891a8.13,8.13,0,0,0,.949.049A7.87,7.87,0,0,0,5.828,60.26a3.937,3.937,0,0,1-3.674-2.725A4.955,4.955,0,0,0,2.9,57.6a4.156,4.156,0,0,0,1.034-.134A3.93,3.93,0,0,1,.779,53.606v-.049a3.958,3.958,0,0,0,1.776.5A3.936,3.936,0,0,1,1.338,48.8a11.17,11.17,0,0,0,8.1,4.112,4.436,4.436,0,0,1-.1-.9,3.933,3.933,0,0,1,6.8-2.689,7.737,7.737,0,0,0,2.494-.949,3.919,3.919,0,0,1-1.728,2.166,7.878,7.878,0,0,0,2.263-.608A8.447,8.447,0,0,1,17.2,51.963Z" transform="translate(0 -48.082)"></path>
  </symbol>
  <symbol xmlns="http://www.w3.org/2000/svg" viewBox="0 0 19.174 15.573" id="twitter-white">
    <path id="twitter" d="M17.2,51.963c.012.17.012.341.012.511A11.1,11.1,0,0,1,6.034,63.655,11.105,11.105,0,0,1,0,61.891a8.13,8.13,0,0,0,.949.049A7.87,7.87,0,0,0,5.828,60.26a3.937,3.937,0,0,1-3.674-2.725A4.955,4.955,0,0,0,2.9,57.6a4.156,4.156,0,0,0,1.034-.134A3.93,3.93,0,0,1,.779,53.606v-.049a3.958,3.958,0,0,0,1.776.5A3.936,3.936,0,0,1,1.338,48.8a11.17,11.17,0,0,0,8.1,4.112,4.436,4.436,0,0,1-.1-.9,3.933,3.933,0,0,1,6.8-2.689,7.737,7.737,0,0,0,2.494-.949,3.919,3.919,0,0,1-1.728,2.166,7.878,7.878,0,0,0,2.263-.608A8.447,8.447,0,0,1,17.2,51.963Z" transform="translate(0 -48.082)" fill="#fff"></path>
  </symbol>
  <symbol xmlns="http://www.w3.org/2000/svg" viewBox="0 0 15.573 15.573" id="linkedin">
    <path id="linkedin" d="M3.486,15.583H.257V5.186H3.486ZM1.87,3.767A1.879,1.879,0,1,1,3.74,1.88,1.886,1.886,0,0,1,1.87,3.767Zm13.7,11.815H12.348V10.522c0-1.206-.024-2.753-1.679-2.753-1.679,0-1.936,1.311-1.936,2.666v5.148H5.508V5.186H8.6V6.6H8.65A3.393,3.393,0,0,1,11.7,4.925c3.268,0,3.868,2.152,3.868,4.947v5.711Z" transform="translate(0 -0.01)"></path>
  </symbol>
  <symbol xmlns="http://www.w3.org/2000/svg" viewBox="0 0 15.573 15.573" id="linkedin-white">
    <path id="linkedin" d="M3.486,15.583H.257V5.186H3.486ZM1.87,3.767A1.879,1.879,0,1,1,3.74,1.88,1.886,1.886,0,0,1,1.87,3.767Zm13.7,11.815H12.348V10.522c0-1.206-.024-2.753-1.679-2.753-1.679,0-1.936,1.311-1.936,2.666v5.148H5.508V5.186H8.6V6.6H8.65A3.393,3.393,0,0,1,11.7,4.925c3.268,0,3.868,2.152,3.868,4.947v5.711Z" transform="translate(0 -0.01)" fill="#fff"></path>
  </symbol>
  <symbol xmlns="http://www.w3.org/2000/svg" viewBox="0 0 16.899 16.192" id="search">
    <g id="search" transform="translate(-162.837 -45.603)" fill="none">
      <path d="M174.787,57.552a6.993,6.993,0,1,1,.657-.757l4.292,4.293-.706.707Z" stroke="none"></path>
      <path d="M 169.8372039794922 58.60295104980469 C 171.4397735595703 58.60295104980469 172.9465942382812 57.97870254516602 174.0800933837891 56.8452033996582 L 174.3862609863281 56.53902053833008 L 174.6438293457031 56.19544219970703 C 175.5008087158203 55.05228424072266 175.9197540283203 53.63264083862305 175.8235015869141 52.19804382324219 C 175.7263793945312 50.75037384033203 175.1072235107422 49.38743209838867 174.0800933837891 48.36030197143555 C 172.9465942382812 47.22680282592773 171.4397735595703 46.60255432128906 169.8372039794922 46.60255432128906 C 168.2346496582031 46.60255432128906 166.7278137207031 47.22680282592773 165.5943145751953 48.36031341552734 C 164.4612426757812 49.49338150024414 163.8372344970703 51.00004196166992 163.8372344970703 52.60275268554688 C 163.8372344970703 54.20546340942383 164.4612426757812 55.71212387084961 165.5943145751953 56.84519195556641 C 166.7278137207031 57.97870254516602 168.2346496582031 58.60295104980469 169.8372039794922 58.60295104980469 M 179.0298004150391 61.79490280151367 L 174.7872009277344 57.55230331420898 C 173.4201049804688 58.91940307617188 171.6286468505859 59.60295104980469 169.8372039794922 59.60295104980469 C 168.0457611083984 59.60295104980469 166.2543029785156 58.91940307617188 164.88720703125 57.55230331420898 C 162.1539001464844 54.81900405883789 162.1539001464844 50.38650131225586 164.88720703125 47.65320205688477 C 166.2543029785156 46.28610229492188 168.0457611083984 45.60255432128906 169.8372039794922 45.60255432128906 C 171.6286468505859 45.60255432128906 173.4201049804688 46.28610229492188 174.7872009277344 47.65320205688477 C 177.2804412841797 50.14643096923828 177.4992218017578 54.05368423461914 175.4439544677734 56.79527282714844 L 179.7362976074219 61.08840179443359 L 179.0298004150391 61.79490280151367 Z" stroke="none" fill="#fff"></path>
    </g>
  </symbol>
  <symbol xmlns="http://www.w3.org/2000/svg" viewBox="0 0 15.573 15.573" id="facebook">
    <path id="facebook" d="M30.684,8.76l.433-2.818h-2.7V4.113A1.409,1.409,0,0,1,30,2.59h1.229V.19A14.992,14.992,0,0,0,29.048,0a3.441,3.441,0,0,0-3.683,3.793V5.941H22.89V8.76h2.476v6.813h3.047V8.76Z" transform="translate(-22.89)"></path>
  </symbol>
  <symbol xmlns="http://www.w3.org/2000/svg" viewBox="0 0 15.576 15.573" id="instagram">
    <path id="instagram" d="M7.715,35.619a3.993,3.993,0,1,0,3.993,3.993A3.986,3.986,0,0,0,7.715,35.619Zm0,6.588a2.6,2.6,0,1,1,2.6-2.6,2.6,2.6,0,0,1-2.6,2.6ZM12.8,35.455a.931.931,0,1,1-.931-.931A.929.929,0,0,1,12.8,35.455Zm2.644.945a4.609,4.609,0,0,0-1.258-3.263,4.639,4.639,0,0,0-3.263-1.258c-1.286-.073-5.139-.073-6.425,0a4.632,4.632,0,0,0-3.263,1.254A4.624,4.624,0,0,0-.02,36.4c-.073,1.286-.073,5.139,0,6.425a4.609,4.609,0,0,0,1.258,3.263A4.645,4.645,0,0,0,4.5,47.343c1.286.073,5.139.073,6.425,0a4.609,4.609,0,0,0,3.263-1.258,4.639,4.639,0,0,0,1.258-3.263C15.52,41.537,15.52,37.686,15.447,36.4Zm-1.661,7.8a2.628,2.628,0,0,1-1.48,1.48,17.162,17.162,0,0,1-4.59.313,17.3,17.3,0,0,1-4.59-.313,2.628,2.628,0,0,1-1.48-1.48,17.162,17.162,0,0,1-.313-4.59,17.3,17.3,0,0,1,.313-4.59,2.628,2.628,0,0,1,1.48-1.48,17.162,17.162,0,0,1,4.59-.313,17.3,17.3,0,0,1,4.59.313,2.628,2.628,0,0,1,1.48,1.48,17.163,17.163,0,0,1,.313,4.59A17.153,17.153,0,0,1,13.786,44.2Z" transform="translate(0.075 -31.825)"></path>
  </symbol>
  <symbol xmlns="http://www.w3.org/2000/svg" viewBox="0 0 15.576 15.573" id="instagram-white">
    <path id="instagram" d="M7.715,35.619a3.993,3.993,0,1,0,3.993,3.993A3.986,3.986,0,0,0,7.715,35.619Zm0,6.588a2.6,2.6,0,1,1,2.6-2.6,2.6,2.6,0,0,1-2.6,2.6ZM12.8,35.455a.931.931,0,1,1-.931-.931A.929.929,0,0,1,12.8,35.455Zm2.644.945a4.609,4.609,0,0,0-1.258-3.263,4.639,4.639,0,0,0-3.263-1.258c-1.286-.073-5.139-.073-6.425,0a4.632,4.632,0,0,0-3.263,1.254A4.624,4.624,0,0,0-.02,36.4c-.073,1.286-.073,5.139,0,6.425a4.609,4.609,0,0,0,1.258,3.263A4.645,4.645,0,0,0,4.5,47.343c1.286.073,5.139.073,6.425,0a4.609,4.609,0,0,0,3.263-1.258,4.639,4.639,0,0,0,1.258-3.263C15.52,41.537,15.52,37.686,15.447,36.4Zm-1.661,7.8a2.628,2.628,0,0,1-1.48,1.48,17.162,17.162,0,0,1-4.59.313,17.3,17.3,0,0,1-4.59-.313,2.628,2.628,0,0,1-1.48-1.48,17.162,17.162,0,0,1-.313-4.59,17.3,17.3,0,0,1,.313-4.59,2.628,2.628,0,0,1,1.48-1.48,17.162,17.162,0,0,1,4.59-.313,17.3,17.3,0,0,1,4.59.313,2.628,2.628,0,0,1,1.48,1.48,17.163,17.163,0,0,1,.313,4.59A17.153,17.153,0,0,1,13.786,44.2Z" transform="translate(0.075 -31.825)" fill="#fff"></path>
  </symbol>
  <symbol xmlns="http://www.w3.org/2000/svg" viewBox="0 0 15.573 15.573" id="facebook-white">
    <path id="facebook" d="M30.684,8.76l.433-2.818h-2.7V4.113A1.409,1.409,0,0,1,30,2.59h1.229V.19A14.992,14.992,0,0,0,29.048,0a3.441,3.441,0,0,0-3.683,3.793V5.941H22.89V8.76h2.476v6.813h3.047V8.76Z" transform="translate(-22.89)" fill="#fff"></path>
  </symbol>
  <symbol xmlns="http://www.w3.org/2000/svg" viewBox="0 0 28 14" id="burger-menu">
    <path id="Burger_menu" d="M2078,12h0Zm0-12h0Z" transform="translate(-2078 1)" fill="none" stroke="#fff" stroke-width="2"></path>
  </symbol>
  <symbol xmlns="http://www.w3.org/2000/svg" viewBox="0 0 30.471 30.471" id="arrow-left">
    <path id="Path_10" d="M0,0H20.546V20.546" transform="translate(15.943 29.764) rotate(-135)" fill="none" stroke="#000" stroke-width="2"></path>
  </symbol>
</svg>